<svg width="235" height="260" viewBox="0 0 235 260" fill="none" xmlns="http://www.w3.org/2000/svg">
<g clip-path="url(#clip0_151_5)">
<path d="M13.2712 247.887L16.7241 234.096L7.20256 230.338L0.662252 241.116C0.662252 241.116 1.95448 253.167 0.263243 258.716C-1.428 264.264 5.2778 250.18 13.2712 247.887Z" fill="url(#paint0_linear_151_5)"/>
<path d="M7.20256 230.338L16.7241 234.096L19.7453 222.414L14.071 220.23L7.20256 230.338Z" fill="url(#paint1_linear_151_5)"/>
<path d="M15.4428 168.165C9.2078 190.203 9.56464 206.987 11.9774 211.6H15.7489C26.1629 190.029 76.3202 111.892 107.54 87.4337C139.885 62.0916 164.836 47.3462 185.821 36.5925C193.19 32.8172 200.749 27.7034 207.566 22.5772C215.844 16.0494 224.235 9.06715 231.583 2.23402L210.284 16.2025L201.65 20.1137L223.981 0C196.069 2.51821 159.634 16.4828 159.634 16.4828C149.272 28.774 140.926 48.327 140.926 48.327C140.637 38.5501 147.259 23.7454 147.259 23.7454C142.366 25.9793 123.776 36.5972 123.776 36.5972C114.684 44.1401 111.859 63.9734 111.859 63.9734C110.131 56.1502 116.174 41.0691 116.174 41.0691C89.9825 56.1549 71.2744 81.8531 71.2744 81.8531C58.3249 107.272 68.9725 127.105 64.9418 122.357C60.9111 117.609 61.7778 100.289 61.7778 100.289C34.4352 126.549 31.5601 139.116 31.5601 139.116C26.9563 150.29 22.9256 180.18 22.9256 180.18C20.3348 177.386 22.9256 161.744 22.9256 161.744C16.3048 175.712 19.4727 188.84 19.4727 188.84C16.3088 187.719 15.4428 168.165 15.4428 168.165Z" fill="url(#paint2_linear_151_5)"/>
<path d="M231.587 11.0809C231.587 11.0809 221.059 21.2826 207.57 31.4241C186.424 48.1021 166.064 61.7355 166.064 61.7355C86.3001 108.869 41.8547 185.787 27.1648 212.16H34.9747C37.735 209.947 41.8805 208.279 59.1917 203.267C81.0638 196.935 94.1108 183.714 94.1108 183.714C94.1108 183.714 74.158 194.888 64.7552 193.772C55.3523 192.655 42.7175 196.192 42.7175 196.192C42.7175 196.192 37.8927 193.958 61.6849 190.42C85.4771 186.882 124.617 160.253 124.617 160.253C124.617 160.253 109.651 166.398 102.745 165.838C95.8396 165.277 78.7626 165.838 78.7626 165.838C90.0809 163.23 100.635 164.721 117.903 158.202C135.171 151.683 134.212 152.243 134.212 152.243C153.782 145.724 161.911 125.428 161.911 125.428C158.526 126.732 132.674 129.896 121.951 126.732C111.227 123.568 92.9567 126.732 92.9567 126.732C110.225 120.96 114.064 123.568 118.282 123.381C122.503 123.195 136.128 124.311 163.182 115.002C190.235 105.693 197.909 94.1451 197.909 94.1451L179.664 96.5828C191.578 94.5784 205.006 86.6959 205.006 86.6959C196.755 88.9298 183.899 90.0464 183.899 90.0464C199.056 86.6959 207.5 82.0405 207.5 82.0405C221.698 71.2399 224.959 55.2249 224.959 55.2249C204.811 62.1135 188.889 58.9495 188.889 58.9495C216.521 57.0896 224.195 50.0097 228.029 48.3363C231.869 46.6591 233.449 39.7237 233.449 39.7237C219.489 44.7523 203.659 45.5886 203.659 45.5886C220.783 42.9345 235.457 34.2742 235.457 34.2742L235.316 20.5806C228.696 24.3521 217.186 32.3112 217.186 32.3112L235.316 20.5806C236.335 14.7118 231.587 11.0809 231.587 11.0809Z" fill="url(#paint3_linear_151_5)"/>
<path d="M19.4096 210.861C49.8521 156.75 85.7481 110.427 113.167 87.939C148.94 58.5966 173.866 46.6029 194.065 33.8408C201.761 28.9778 215.954 21.4396 223.149 15.4255C193.598 40.1305 163.605 57.9938 163.605 57.9938C85.1172 107.481 41.2771 181.32 24.0535 212.16H27.1648C41.8547 185.787 86.3001 108.869 166.064 61.7355C166.064 61.7355 186.424 48.1021 207.57 31.4241C221.059 21.2826 231.587 11.0809 231.587 11.0809L231.583 2.23402C224.235 9.06715 215.844 16.0494 207.566 22.5772C200.749 27.7034 193.19 32.8172 185.821 36.5925C164.836 47.3462 139.885 62.0916 107.54 87.4337C76.3202 111.892 26.1629 190.029 15.7489 211.6H18.9618L19.3924 210.84L19.4096 210.861Z" fill="url(#paint4_linear_151_5)"/>
<path d="M14.071 220.23L19.7453 222.414L22.7437 214.514L24.0535 212.16L18.9618 211.6L14.071 220.23Z" fill="url(#paint5_linear_151_5)"/>
</g>
<defs>
<linearGradient id="paint0_linear_151_5" x1="235.46" y1="2.04951e-05" x2="-36.5388" y2="46.5644" gradientUnits="userSpaceOnUse">
<stop stop-color="#1DAEB4"/>
<stop offset="1" stop-color="#29D9E1"/>
</linearGradient>
<linearGradient id="paint1_linear_151_5" x1="235.46" y1="2.04951e-05" x2="-36.5388" y2="46.5644" gradientUnits="userSpaceOnUse">
<stop stop-color="#1DAEB4"/>
<stop offset="1" stop-color="#29D9E1"/>
</linearGradient>
<linearGradient id="paint2_linear_151_5" x1="235.46" y1="2.04951e-05" x2="-36.5388" y2="46.5644" gradientUnits="userSpaceOnUse">
<stop stop-color="#1DAEB4"/>
<stop offset="1" stop-color="#29D9E1"/>
</linearGradient>
<linearGradient id="paint3_linear_151_5" x1="235.46" y1="2.04951e-05" x2="-36.5388" y2="46.5644" gradientUnits="userSpaceOnUse">
<stop stop-color="#1DAEB4"/>
<stop offset="1" stop-color="#29D9E1"/>
</linearGradient>
<linearGradient id="paint4_linear_151_5" x1="235.46" y1="2.04951e-05" x2="-36.5388" y2="46.5644" gradientUnits="userSpaceOnUse">
<stop stop-color="#1DAEB4"/>
<stop offset="1" stop-color="#29D9E1"/>
</linearGradient>
<linearGradient id="paint5_linear_151_5" x1="235.46" y1="2.04951e-05" x2="-36.5388" y2="46.5644" gradientUnits="userSpaceOnUse">
<stop stop-color="#1DAEB4"/>
<stop offset="1" stop-color="#29D9E1"/>
</linearGradient>
</defs>
</svg>