<svg width="1200" height="350" viewBox="0 0 1200 350" fill="none" xmlns="http://www.w3.org/2000/svg">
<g clip-path="url(#clip0_2052_4147)">
<g filter="url(#filter0_df_2052_4147)">
<path fill-rule="evenodd" clip-rule="evenodd" d="M1085.29 194.056C1086.17 188.064 1083.71 182.467 1078.5 177.548C1053.43 153.823 1022.47 135.94 997.919 124.017C985.619 118.043 974.872 113.538 967.191 110.524C963.35 109.016 960.272 107.88 958.148 107.119C957.085 106.738 956.261 106.451 955.698 106.258C955.417 106.161 955.201 106.088 955.053 106.038C954.979 106.013 954.922 105.994 954.883 105.981L954.824 105.961L954.82 105.96C954.819 105.96 954.818 105.959 953.447 110.112L954.818 105.959L954.098 105.722L953.34 105.74C948.294 105.864 943.258 105.978 938.229 106.092C902.095 106.91 866.317 107.72 829.751 112.044C758.332 120.489 701.867 135.754 642.267 177.132C632.744 183.744 623.511 190.399 614.405 196.964C573.616 226.367 535.366 253.94 484.969 267.505C418.349 285.436 359.138 271.708 292.967 256.366C291.486 256.022 290.002 255.678 288.514 255.334C288.411 255.281 288.293 255.219 288.158 255.15C287.609 254.865 286.795 254.441 285.745 253.885C283.645 252.772 280.601 251.134 276.84 249.041C269.317 244.853 258.942 238.851 247.542 231.595C224.628 217.01 198.007 197.631 181.882 177.953C164.53 156.777 151.466 138.64 142.261 119.122C133.086 99.6683 127.662 78.6627 125.863 51.7089C124.534 31.8059 129.495 6.38519 134.945 -14.3788C137.653 -24.6936 140.447 -33.7355 142.564 -40.1969C143.622 -43.4262 144.51 -46.0072 145.131 -47.7761C145.442 -48.6605 145.686 -49.3416 145.851 -49.799C145.934 -50.0278 145.997 -50.2005 146.039 -50.3147L146.097 -50.4718L146.099 -50.4784L146.1 -50.4795C146.939 -52.7434 145.785 -55.2598 143.521 -56.0997C141.256 -56.9396 138.74 -55.785 137.9 -53.5208L142 -52C137.9 -53.5208 137.9 -53.52 137.9 -53.5191L137.898 -53.5159L137.88 -53.467L137.827 -53.3231L137.765 -53.1535C137.727 -53.0483 137.681 -52.9212 137.627 -52.7726C137.453 -52.2914 137.2 -51.5852 136.88 -50.6746C136.241 -48.8535 135.333 -46.2137 134.254 -42.9198C132.096 -36.335 129.248 -27.1213 126.486 -16.5992C120.998 4.31088 115.708 30.8903 117.137 52.2914C119 80.1934 124.653 102.288 134.351 122.852C144.019 143.351 157.624 162.148 175.118 183.496C192.177 204.313 219.806 224.308 242.846 238.972C254.424 246.341 264.952 252.433 272.587 256.682C276.406 258.808 279.504 260.475 281.652 261.613C282.727 262.182 283.563 262.618 284.134 262.914C284.42 263.062 284.638 263.175 284.787 263.251L284.957 263.338L285.015 263.367L285.018 263.369C285.019 263.37 285.02 263.37 287 259.471L285.02 263.37L285.495 263.611L286.014 263.731C287.912 264.171 289.807 264.61 291.698 265.049C357.337 280.276 418.476 294.458 487.242 275.95C539.326 261.931 579.101 233.235 619.963 203.754C628.96 197.263 638.009 190.735 647.254 184.316C705.28 144.031 760.21 129.073 830.778 120.729C866.901 116.457 902.237 115.656 938.407 114.836C943.182 114.727 947.972 114.619 952.78 114.502C952.804 114.51 952.83 114.519 952.856 114.528C953.384 114.71 954.172 114.984 955.197 115.351C957.247 116.086 960.242 117.192 963.996 118.665C971.507 121.612 982.04 126.026 994.099 131.883C1018.26 143.62 1048.33 161.044 1072.49 183.901C1076.24 187.446 1076.99 190.364 1076.64 192.79C1076.24 195.54 1074.26 198.845 1070.15 202.609C1061.95 210.117 1047.48 217.479 1031.29 224.004C1015.24 230.47 998.043 235.909 984.817 239.737C978.213 241.649 972.618 243.155 968.678 244.181C966.708 244.694 965.153 245.087 964.093 245.351C963.563 245.484 963.157 245.583 962.885 245.65C962.749 245.683 962.647 245.708 962.579 245.724L962.503 245.743L962.485 245.747L962.481 245.748C962.481 245.748 962.481 245.748 963.5 250C964.519 254.253 964.52 254.252 964.522 254.252L964.528 254.25L964.635 254.224C964.709 254.207 964.818 254.18 964.96 254.145C965.245 254.076 965.665 253.973 966.209 253.837C967.296 253.566 968.881 253.165 970.883 252.644C974.885 251.601 980.557 250.075 987.249 248.138C1000.62 244.268 1018.13 238.736 1034.56 232.116C1050.84 225.555 1066.6 217.714 1076.05 209.058C1080.77 204.74 1084.46 199.724 1085.29 194.056ZM959.248 251.019C959.81 253.368 962.17 254.815 964.519 254.253L963.5 250L962.481 245.748C960.133 246.311 958.685 248.671 959.248 251.019Z" fill="url(#paint0_linear_2052_4147)"/>
</g>
</g>
<defs>
<filter id="filter0_df_2052_4147" x="29.4474" y="-143.827" width="1143.47" height="516.015" filterUnits="userSpaceOnUse" color-interpolation-filters="sRGB">
<feFlood flood-opacity="0" result="BackgroundImageFix"/>
<feColorMatrix in="SourceAlpha" type="matrix" values="0 0 0 0 0 0 0 0 0 0 0 0 0 0 0 0 0 0 127 0" result="hardAlpha"/>
<feOffset/>
<feGaussianBlur stdDeviation="43.7265"/>
<feComposite in2="hardAlpha" operator="out"/>
<feColorMatrix type="matrix" values="0 0 0 0 0.113725 0 0 0 0 0.713726 0 0 0 0 0.741176 0 0 0 1 0"/>
<feBlend mode="normal" in2="BackgroundImageFix" result="effect1_dropShadow_2052_4147"/>
<feBlend mode="normal" in="SourceGraphic" in2="effect1_dropShadow_2052_4147" result="shape"/>
<feGaussianBlur stdDeviation="17.4906" result="effect2_foregroundBlur_2052_4147"/>
</filter>
<linearGradient id="paint0_linear_2052_4147" x1="1093.32" y1="199.916" x2="240.193" y2="507.937" gradientUnits="userSpaceOnUse">
<stop stop-color="#1DAEB4"/>
<stop offset="1" stop-color="#29D9E1"/>
</linearGradient>
</defs>
</svg>