<svg width="40" height="40" viewBox="0 0 40 40" fill="none" xmlns="http://www.w3.org/2000/svg">
<path d="M31.5258 7.11857C35.6614 10.5084 38.3055 15.5932 38.3055 21.3559C38.3055 31.4576 30.1021 39.6609 20.0004 39.6609C9.89867 39.6609 1.69531 31.4576 1.69531 21.3559C1.69531 11.2541 9.89867 3.05078 20.0004 3.05078V7.11857C12.136 7.11857 5.76311 13.4914 5.76311 21.3559C5.76311 29.2203 12.136 35.5931 20.0004 35.5931C27.8647 35.5931 34.2377 29.2203 34.2377 21.3559C34.2377 15.6609 30.8478 10.7796 26.0343 8.47453H26.1021H31.5258V7.11857Z" fill="#0F0F0F"/>
<path d="M31.5253 7.11858V8.47453H26.1016V7.11858V1.69482H31.5253V7.11858Z" fill="url(#paint0_linear_157_11)"/>
<path d="M19.9996 15.2543C16.6097 15.2543 13.8979 17.9662 13.8979 21.356C13.8979 24.7459 16.6097 27.4577 19.9996 27.4577C23.3894 27.4577 26.1013 24.7459 26.1013 21.356C26.1013 17.9662 23.3894 15.2543 19.9996 15.2543ZM19.9996 11.1865C25.6267 11.1865 30.169 15.7289 30.169 21.356C30.169 26.9831 25.6267 31.5255 19.9996 31.5255C14.3724 31.5255 9.83008 26.9831 9.83008 21.356C9.83008 15.7289 14.3725 11.1865 19.9996 11.1865Z" fill="#0F0F0F"/>
<path d="M26.1017 1.69475V7.1185H25.4238H20V3.0507V0.338867H26.1017V1.69475Z" fill="url(#paint1_linear_157_11)"/>
<path d="M20.0007 19.3218C21.1533 19.3218 22.0346 20.2031 22.0346 21.3557C22.0346 22.5082 21.1533 23.3896 20.0007 23.3896C18.8481 23.3896 17.9668 22.5082 17.9668 21.3557C17.9668 20.2031 18.8482 19.3218 20.0007 19.3218Z" fill="url(#paint2_linear_157_11)"/>
<path d="M19.9996 40C9.69445 40 1.35547 31.661 1.35547 21.3559C1.35547 11.1864 9.55883 2.91523 19.6605 2.71184V0.339009C19.6605 0.13562 19.7962 0 19.9996 0H26.1012C26.3046 0 26.4403 0.13562 26.4403 0.339009V8.13559H31.186V2.0339H28.8131C28.6097 2.0339 28.4741 1.89828 28.4741 1.69489C28.4741 1.4915 28.6097 1.35588 28.8131 1.35588H31.525C31.7284 1.35588 31.864 1.4915 31.864 1.69489V8.47452C31.864 8.67791 31.7284 8.81353 31.525 8.81353H26.1012C25.8979 8.81353 25.7622 8.67791 25.7622 8.47452V7.45757H22.7114C22.508 7.45757 22.3724 7.32195 22.3724 7.11856C22.3724 6.91517 22.508 6.77955 22.7114 6.77955H25.7622V0.67786H20.3386V21.3559C20.3386 21.5593 20.2029 21.6949 19.9996 21.6949C19.7962 21.6949 19.6605 21.5593 19.6605 21.3559V19.7288C18.9148 19.8644 18.3046 20.5424 18.3046 21.3559C18.3046 22.3051 19.0504 23.0508 19.9995 23.0508C20.9487 23.0508 21.6944 22.305 21.6944 21.3559C21.6944 21.1525 21.83 21.0169 22.0334 21.0169C22.2368 21.0169 22.3724 21.1525 22.3724 21.3559C22.3724 22.644 21.2877 23.7288 19.9995 23.7288C18.7113 23.7288 17.6266 22.6441 17.6266 21.3559C17.6266 20.1356 18.5079 19.1864 19.6605 18.983V15.5932C16.6096 15.7965 14.2367 18.305 14.2367 21.3558C14.2367 24.5423 16.813 27.1185 19.9994 27.1185C23.1858 27.1185 25.7621 24.5422 25.7621 21.3558C25.7621 19.1186 24.5417 17.1524 22.5756 16.2033C22.44 16.1356 22.3722 15.9322 22.44 15.7288C22.5078 15.5932 22.7112 15.5254 22.9145 15.5932C25.1518 16.6779 26.5078 18.9152 26.5078 21.3558C26.5078 24.8812 23.5926 27.7965 20.0671 27.7965C16.5416 27.7965 13.6267 24.8813 13.6267 21.3559C13.6267 17.8983 16.3385 15.1186 19.7284 14.9152V11.5254C14.4403 11.7288 10.2368 16.0677 10.2368 21.3558C10.2368 26.7796 14.6437 31.1863 20.0673 31.1863C25.491 31.1863 29.8979 26.7796 29.8979 21.3559C29.8979 17.2204 27.2538 13.4915 23.3216 12.0678C23.1182 12 23.0505 11.7966 23.1182 11.661C23.186 11.5254 23.3894 11.3898 23.525 11.4576C27.7284 12.9491 30.508 16.9491 30.508 21.3559C30.508 27.1186 25.7623 31.8644 19.9996 31.8644C14.2368 31.8644 9.49114 27.1186 9.49114 21.3559C9.49114 15.661 14.0335 11.0508 19.6606 10.8474V7.45757C12.1352 7.66096 6.10128 13.8305 6.10128 21.3559C6.10128 29.017 12.3386 35.2542 19.9996 35.2542C27.6605 35.2542 33.8979 29.0169 33.8979 21.3559C33.8979 17.5593 32.4064 14.0339 29.6945 11.4576C29.5589 11.322 29.5589 11.1186 29.6945 10.983C29.8301 10.8475 30.0335 10.8474 30.169 10.983C33.0165 13.7627 34.5758 17.4237 34.5758 21.4237C34.5758 29.4915 28.0674 36 19.9996 36C11.9317 36 5.42334 29.4914 5.42334 21.4237C5.42334 13.4915 11.7962 7.05079 19.6606 6.8474V3.45762C9.89792 3.66093 2.03349 11.5932 2.03349 21.4237C2.03349 31.322 10.1013 39.3898 19.9996 39.3898C29.8978 39.3898 37.9657 31.322 37.9657 21.4237C37.9657 17.2881 36.542 13.2881 33.9657 10.1016C33.8301 9.96602 33.8979 9.76262 34.0334 9.62708C34.1691 9.49147 34.3725 9.55932 34.508 9.69486C37.2198 13.0169 38.6436 17.1525 38.6436 21.4237C38.6436 31.661 30.3047 40 19.9996 40Z" fill="#51565F"/>
<defs>
<linearGradient id="paint0_linear_157_11" x1="31.5253" y1="1.69482" x2="25.2205" y2="2.6483" gradientUnits="userSpaceOnUse">
<stop stop-color="#1DAEB4"/>
<stop offset="1" stop-color="#29D9E1"/>
</linearGradient>
<linearGradient id="paint1_linear_157_11" x1="26.1017" y1="0.338868" x2="19.0507" y2="1.53848" gradientUnits="userSpaceOnUse">
<stop stop-color="#1DAEB4"/>
<stop offset="1" stop-color="#29D9E1"/>
</linearGradient>
<linearGradient id="paint2_linear_157_11" x1="22.0346" y1="19.3218" x2="17.3647" y2="20.2046" gradientUnits="userSpaceOnUse">
<stop stop-color="#1DAEB4"/>
<stop offset="1" stop-color="#29D9E1"/>
</linearGradient>
</defs>
</svg>
