<svg width="40" height="40" viewBox="0 0 40 40" fill="none" xmlns="http://www.w3.org/2000/svg">
<g clip-path="url(#clip0_157_23)">
<path d="M29.1412 32.6275L21.2712 28.2675C24.1962 25.9662 24.9912 21.4437 24.9912 18.9075V13.6287C24.9912 10.1337 20.3475 6.24121 15.6825 6.24121C11.02 6.24121 6.2525 10.1337 6.2525 13.6287V18.9075C6.2525 21.2137 7.2275 25.8775 10.1825 28.2475L2.11 32.6262C2.11 32.6262 0 33.5662 0 34.7375V37.905C0 39.0712 0.94625 40.0162 2.11 40.0162H29.1412C30.305 40.0162 31.2512 39.07 31.2512 37.905V34.7375C31.2512 33.495 29.14 32.6262 29.14 32.6262L29.1412 32.6275ZM28.7512 37.5187H2.5V35.2837C2.67875 35.1525 2.93 35.0012 3.1275 34.9112C3.18625 34.885 3.245 34.8562 3.30125 34.8237L11.375 30.445C12.1112 30.045 12.5987 29.305 12.6737 28.4712C12.7487 27.6375 12.4 26.8212 11.7475 26.2975C9.65125 24.6162 8.7525 20.895 8.7525 18.9087V13.63C8.7525 11.8337 12.1375 8.74246 15.6825 8.74246C19.2937 8.74246 22.4912 11.7925 22.4912 13.63V18.9087C22.4912 20.8662 21.8837 24.605 19.7262 26.3025C19.0662 26.8225 18.71 27.64 18.78 28.4762C18.85 29.3125 19.3375 30.06 20.0737 30.4625L27.9438 34.8225C28.0125 34.86 28.1012 34.9012 28.1737 34.9337C28.3587 35.0125 28.585 35.1425 28.7512 35.2575V37.5187Z" fill="black"/>
<path d="M29.9021 22.0435L37.8896 26.4035C37.8896 26.4035 40.0009 27.2735 40.0021 28.5173V31.646C40.0021 32.811 39.0559 33.7573 37.8921 33.7573H33.7434C33.4471 32.6548 33.2171 31.8323 32.4546 31.2573H37.5009V29.0335C37.3346 28.9185 37.1084 28.7885 36.9234 28.7098C36.8509 28.6773 36.7621 28.636 36.6934 28.5985L28.7059 24.2385C27.9684 23.836 27.4821 23.0898 27.4121 22.2523C27.3421 21.416 27.6971 20.5985 28.3584 20.0785C30.5146 18.381 31.2396 14.6423 31.2396 12.6848V7.40602C31.2396 5.56727 27.9259 2.47977 24.3146 2.47977C22.5059 2.47977 20.8409 3.08852 19.5234 4.11477C18.5434 3.80227 17.4096 3.80102 16.3809 3.73727C18.1846 1.62727 21.2834 -0.0214844 24.3146 -0.0214844C28.9796 -0.0214844 33.7396 3.90977 33.7396 7.40477V12.6835C33.7396 15.2198 32.8271 19.7423 29.9021 22.0435Z" fill="url(#paint0_linear_157_23)"/>
</g>
<defs>
<linearGradient id="paint0_linear_157_23" x1="40.0021" y1="-0.0214817" x2="12.398" y2="3.62755" gradientUnits="userSpaceOnUse">
<stop stop-color="#1DAEB4"/>
<stop offset="1" stop-color="#29D9E1"/>
</linearGradient>
<clipPath id="clip0_157_23">
<rect width="40" height="40" fill="white"/>
</clipPath>
</defs>
</svg>
