<svg width="48" height="48" viewBox="0 0 48 48" fill="none" xmlns="http://www.w3.org/2000/svg"><path d="M40 0H8C3.58172 0 0 3.58172 0 8V40C0 44.4183 3.58172 48 8 48H40C44.4183 48 48 44.4183 48 40V8C48 3.58172 44.4183 0 40 0Z" fill="#0F0F0F"/><path d="M37.0616 38.6605L36.6346 36.9548L37.8123 36.4899L38.6212 37.8231C38.6212 37.8231 38.4614 39.3136 38.6706 39.9999C38.8798 40.6862 38.0503 38.9442 37.0616 38.6605Z" fill="white"/><path d="M37.8123 36.4899L36.6346 36.9548L36.2609 35.5098L36.9627 35.2398L37.8123 36.4899Z" fill="white"/><path d="M36.793 28.8C37.5642 31.5258 37.5201 33.6018 37.2217 34.1723H36.7552C35.4671 31.5042 29.2633 21.8397 25.4018 18.8145C21.4011 15.68 18.3149 13.8561 15.7194 12.526C14.8079 12.0591 13.8729 11.4266 13.0298 10.7925C12.0059 9.98511 10.968 9.12149 10.0592 8.27632L12.6936 10.004L13.7616 10.4878L10.9995 8C14.4519 8.31147 18.9584 10.0387 18.9584 10.0387C20.2401 11.559 21.2723 13.9774 21.2723 13.9774C21.3081 12.7682 20.4891 10.937 20.4891 10.937C21.0942 11.2133 23.3935 12.5266 23.3935 12.5266C24.5182 13.4596 24.8675 15.9127 24.8675 15.9127C25.0813 14.9451 24.3338 13.0797 24.3338 13.0797C27.5734 14.9457 29.8874 18.1242 29.8874 18.1242C31.4891 21.2682 30.1721 23.7213 30.6706 23.134C31.1692 22.5467 31.062 20.4046 31.062 20.4046C34.4439 23.6526 34.7995 25.2069 34.7995 25.2069C35.369 26.589 35.8675 30.2861 35.8675 30.2861C36.188 29.9404 35.8675 28.0057 35.8675 28.0057C36.6864 29.7334 36.2946 31.3571 36.2946 31.3571C36.6859 31.2185 36.793 28.8 36.793 28.8Z" fill="white"/><path d="M10.0587 9.37057C10.0587 9.37057 11.3609 10.6324 13.0293 11.8868C15.6448 13.9496 18.1631 15.6359 18.1631 15.6359C28.0289 21.4657 33.5262 30.9795 35.3432 34.2416H34.3772C34.0358 33.9679 33.523 33.7615 31.3819 33.1417C28.6765 32.3584 27.0628 30.7232 27.0628 30.7232C27.0628 30.7232 29.5307 32.1053 30.6937 31.9671C31.8567 31.829 33.4195 32.2665 33.4195 32.2665C33.4195 32.2665 34.0163 31.9902 31.0735 31.5526C28.1307 31.115 23.2895 27.8213 23.2895 27.8213C23.2895 27.8213 25.1406 28.5814 25.9948 28.5121C26.849 28.4427 28.9612 28.5121 28.9612 28.5121C27.5612 28.1895 26.2559 28.374 24.12 27.5676C21.9841 26.7613 22.1028 26.8306 22.1028 26.8306C19.6822 26.0243 18.6767 23.5139 18.6767 23.5139C19.0954 23.6752 22.293 24.0665 23.6193 23.6752C24.9457 23.2838 27.2055 23.6752 27.2055 23.6752C25.0697 22.9612 24.5948 23.2838 24.0731 23.2607C23.551 23.2377 21.8658 23.3758 18.5196 22.2243C15.1734 21.0729 14.2242 19.6446 14.2242 19.6446L16.4809 19.9461C15.0074 19.6982 13.3464 18.7232 13.3464 18.7232C14.367 18.9995 15.9571 19.1376 15.9571 19.1376C14.0823 18.7232 13.038 18.1474 13.038 18.1474C11.2819 16.8115 10.8785 14.8306 10.8785 14.8306C13.3705 15.6827 15.3399 15.2913 15.3399 15.2913C11.9222 15.0613 10.973 14.1856 10.4987 13.9786C10.0238 13.7712 9.82844 12.9133 9.82844 12.9133C11.5551 13.5353 13.513 13.6387 13.513 13.6387C11.395 13.3105 9.58004 12.2393 9.58004 12.2393L9.59742 10.5456C10.4163 11.0121 11.8399 11.9965 11.8399 11.9965L9.59742 10.5456C9.47139 9.81967 10.0587 9.37057 10.0587 9.37057Z" fill="white"/><path d="M36.3024 34.0809C32.537 27.388 28.0971 21.6585 24.7057 18.877C20.2811 15.2477 17.1981 13.7642 14.6997 12.1857C13.7478 11.5842 11.9923 10.6518 11.1024 9.90795C14.7575 12.9636 18.4672 15.1731 18.4672 15.1731C28.1752 21.294 33.5977 30.4271 35.728 34.2416H35.3432C33.5262 30.9795 28.0289 21.4657 18.1631 15.6359C18.1631 15.6359 15.6448 13.9496 13.0293 11.8868C11.3609 10.6324 10.0587 9.37057 10.0587 9.37057L10.0592 8.27632C10.968 9.12149 12.0059 9.98511 13.0298 10.7925C13.8729 11.4266 14.8079 12.0591 15.7194 12.526C18.3149 13.8561 21.4011 15.68 25.4018 18.8145C29.2633 21.8397 35.4671 31.5042 36.7552 34.1723H36.3578L36.3045 34.0783L36.3024 34.0809Z" fill="white"/><path d="M36.9627 35.2398L36.2609 35.5098L35.89 34.5327L35.728 34.2416L36.3578 34.1723L36.9627 35.2398Z" fill="white"/></svg>