<svg width="48" height="48" viewBox="0 0 48 48" fill="none" xmlns="http://www.w3.org/2000/svg"><path d="M40 0H8C3.58172 0 0 3.58172 0 8V40C0 44.4183 3.58172 48 8 48H40C44.4183 48 48 44.4183 48 40V8C48 3.58172 44.4183 0 40 0Z" fill="#1DB6BD"/><path d="M37.0618 38.6603L36.6348 36.9546L37.8125 36.4897L38.6214 37.8229C38.6214 37.8229 38.4616 39.3134 38.6708 39.9997C38.88 40.686 38.0505 38.944 37.0618 38.6603Z" fill="white"/><path d="M37.8131 36.4898L36.6354 36.9547L36.2617 35.5097L36.9635 35.2397L37.8131 36.4898Z" fill="white"/><path d="M36.7943 28.8C37.5655 31.5258 37.5214 33.6018 37.223 34.1723H36.7565C35.4684 31.5042 29.2646 21.8397 25.4031 18.8145C21.4024 15.68 18.3162 13.8561 15.7207 12.526C14.8092 12.0591 13.8742 11.4266 13.0311 10.7925C12.0072 9.98511 10.9693 9.12149 10.0605 8.27632L12.6949 10.004L13.7629 10.4878L11.0008 8C14.4532 8.31147 18.9597 10.0387 18.9597 10.0387C20.2414 11.559 21.2736 13.9774 21.2736 13.9774C21.3094 12.7682 20.4904 10.937 20.4904 10.937C21.0955 11.2133 23.3948 12.5266 23.3948 12.5266C24.5195 13.4596 24.8688 15.9127 24.8688 15.9127C25.0826 14.9451 24.3351 13.0797 24.3351 13.0797C27.5747 14.9457 29.8887 18.1242 29.8887 18.1242C31.4904 21.2682 30.1734 23.7213 30.6719 23.134C31.1705 22.5467 31.0633 20.4046 31.0633 20.4046C34.4452 23.6526 34.8008 25.2069 34.8008 25.2069C35.3703 26.589 35.8688 30.2861 35.8688 30.2861C36.1893 29.9404 35.8688 28.0057 35.8688 28.0057C36.6877 29.7334 36.2959 31.3571 36.2959 31.3571C36.6872 31.2185 36.7943 28.8 36.7943 28.8Z" fill="white"/><path d="M10.0591 9.37061C10.0591 9.37061 11.3613 10.6324 13.0297 11.8868C15.6452 13.9496 18.1635 15.6359 18.1635 15.6359C28.0293 21.4657 33.5266 30.9795 35.3436 34.2416H34.3776C34.0362 33.9679 33.5234 33.7615 31.3823 33.1417C28.6769 32.3584 27.0632 30.7232 27.0632 30.7232C27.0632 30.7232 29.5311 32.1053 30.6941 31.9671C31.8571 31.829 33.4199 32.2665 33.4199 32.2665C33.4199 32.2665 34.0167 31.9902 31.0739 31.5526C28.1311 31.115 23.2899 27.8213 23.2899 27.8213C23.2899 27.8213 25.141 28.5814 25.9952 28.5121C26.8494 28.4427 28.9616 28.5121 28.9616 28.5121C27.5616 28.1895 26.2563 28.374 24.1204 27.5676C21.9845 26.7613 22.1032 26.8306 22.1032 26.8306C19.6826 26.0243 18.6771 23.5139 18.6771 23.5139C19.0958 23.6752 22.2934 24.0665 23.6197 23.6752C24.9461 23.2838 27.2059 23.6752 27.2059 23.6752C25.0701 22.9612 24.5952 23.2838 24.0735 23.2607C23.5514 23.2377 21.8662 23.3758 18.52 22.2243C15.1738 21.0729 14.2246 19.6446 14.2246 19.6446L16.4813 19.9461C15.0078 19.6982 13.3468 18.7232 13.3468 18.7232C14.3674 18.9995 15.9575 19.1376 15.9575 19.1376C14.0827 18.7232 13.0384 18.1474 13.0384 18.1474C11.2823 16.8115 10.8789 14.8306 10.8789 14.8306C13.3709 15.6827 15.3403 15.2913 15.3403 15.2913C11.9226 15.0613 10.9734 14.1856 10.4991 13.9786C10.0242 13.7712 9.82882 12.9133 9.82882 12.9133C11.5555 13.5353 13.5134 13.6387 13.5134 13.6387C11.3954 13.3105 9.58042 12.2393 9.58042 12.2393L9.5978 10.5456C10.4167 11.0121 11.8403 11.9965 11.8403 11.9965L9.5978 10.5456C9.47177 9.81971 10.0591 9.37061 10.0591 9.37061Z" fill="white"/><path d="M36.3023 34.0809C32.5369 27.388 28.097 21.6585 24.7056 18.877C20.281 15.2477 17.198 13.7642 14.6996 12.1857C13.7477 11.5842 11.9922 10.6518 11.1023 9.908C14.7574 12.9636 18.4671 15.1731 18.4671 15.1731C28.1751 21.294 33.5976 30.4271 35.7279 34.2416H35.3431C33.5261 30.9795 28.0288 21.4657 18.163 15.6359C18.163 15.6359 15.6447 13.9496 13.0292 11.8868C11.3608 10.6324 10.0586 9.37062 10.0586 9.37062L10.0591 8.27637C10.9679 9.12154 12.0058 9.98516 13.0297 10.7925C13.8728 11.4266 14.8078 12.0591 15.7193 12.526C18.3148 13.8561 21.401 15.68 25.4017 18.8145C29.2632 21.8397 35.467 31.5042 36.7551 34.1723H36.3577L36.3044 34.0783L36.3023 34.0809Z" fill="white"/><path d="M36.9632 35.2399L36.2614 35.5099L35.8905 34.5328L35.7285 34.2417L36.3583 34.1724L36.9632 35.2399Z" fill="white"/></svg>