<svg width="40" height="40" viewBox="0 0 40 40" fill="none" xmlns="http://www.w3.org/2000/svg">
<path d="M32.2091 6.74584C31.7288 5.98931 30.6562 5.89476 30.0225 6.52774C30.0154 6.5341 30.009 6.54125 30.0019 6.5484C29.5373 7.01228 29.4527 7.73412 29.8037 8.28883C31.0739 10.2972 31.7011 12.6528 31.5584 15.1222C31.3793 18.2168 29.8662 21.0862 27.5766 23.1761C25.6947 24.8931 24.4885 27.1842 24.1481 29.6301H15.5175C15.185 27.0633 13.9589 24.6679 11.9833 22.7726C10.9582 21.7893 10.0495 20.6741 9.48339 19.3718C5.94902 11.2448 11.7502 3.22578 19.4467 2.86904C21.45 2.77952 23.3867 3.19294 25.1229 4.05329C25.6543 4.31682 26.2958 4.19326 26.7157 3.77415L26.7363 3.75349C27.4312 3.06012 27.2158 1.90434 26.3364 1.46959C24.1867 0.407565 21.7926 -0.103984 19.3155 0.01758C11.0596 0.400414 4.55369 7.84972 5.69967 16.3739C6.13733 19.6296 7.76057 22.6184 10.1014 24.9243C11.812 26.6094 12.7533 28.7805 12.7548 31.0515C12.7554 31.8407 13.3394 32.4851 14.1286 32.4851H24.6107C26.251 32.4851 26.9081 31.8741 26.9032 31.1034C26.8897 28.8833 27.8679 26.7337 29.5829 25.2113C32.6646 22.4747 34.4321 18.547 34.4321 14.4344C34.4328 11.659 33.6541 9.02193 32.2091 6.74584Z" fill="black"/>
<path d="M25.3383 33.3149H14.0776C13.2891 33.3149 12.6504 33.9543 12.6504 34.7422C12.6504 35.53 13.2891 36.1694 14.0776 36.1694H25.3383C26.1269 36.1694 26.7656 35.5301 26.7656 34.7422C26.7656 33.9543 26.1269 33.3149 25.3383 33.3149Z" fill="url(#paint0_linear_157_4)"/>
<path d="M23.2615 37.1455H16.1538C15.3652 37.1455 14.7266 37.7848 14.7266 38.5728C14.7266 39.3605 15.3652 40 16.1538 40H23.2607C24.0493 40 24.6879 39.3607 24.6879 38.5728C24.6879 37.7848 24.05 37.1455 23.2615 37.1455Z" fill="black"/>
<defs>
<linearGradient id="paint0_linear_157_4" x1="26.7656" y1="33.3149" x2="17.8086" y2="41.6876" gradientUnits="userSpaceOnUse">
<stop stop-color="#1DAEB4"/>
<stop offset="1" stop-color="#29D9E1"/>
</linearGradient>
</defs>
</svg>
