<svg width="40" height="40" viewBox="0 0 40 40" fill="none" xmlns="http://www.w3.org/2000/svg">
<rect x="1.25" y="1.25" width="37.5" height="37.5" rx="18.75" stroke="#0F0F0F" stroke-width="2.5"/>
<path d="M18.9479 22.2708C18.9479 21.7847 19.0243 21.3542 19.1771 20.9792C19.3438 20.6042 19.5451 20.2708 19.7812 19.9792C20.0313 19.6875 20.2951 19.4167 20.5729 19.1667C20.8507 18.9167 21.1076 18.6806 21.3438 18.4583C21.5938 18.2222 21.7951 17.9792 21.9479 17.7292C22.1146 17.4792 22.1979 17.2014 22.1979 16.8958C22.1979 16.3958 21.9896 15.9931 21.5729 15.6875C21.1701 15.3819 20.6285 15.2292 19.9479 15.2292C19.2951 15.2292 18.7118 15.3681 18.1979 15.6458C17.684 15.9097 17.2604 16.2847 16.9271 16.7708L14.4062 15.2917C14.9618 14.4444 15.7326 13.7708 16.7188 13.2708C17.7049 12.7569 18.8993 12.5 20.3021 12.5C21.3437 12.5 22.2604 12.6528 23.0521 12.9583C23.8437 13.25 24.4618 13.6806 24.9062 14.25C25.3646 14.8194 25.5937 15.5208 25.5937 16.3542C25.5937 16.8958 25.5104 17.375 25.3438 17.7917C25.1771 18.2083 24.9618 18.5694 24.6979 18.875C24.434 19.1806 24.1493 19.4653 23.8438 19.7292C23.5521 19.9931 23.2743 20.25 23.0104 20.5C22.7465 20.75 22.5243 21.0139 22.3438 21.2917C22.1771 21.5694 22.0938 21.8958 22.0938 22.2708H18.9479ZM20.5312 27.5C19.9479 27.5 19.4688 27.3125 19.0938 26.9375C18.7188 26.5625 18.5312 26.1181 18.5312 25.6042C18.5312 25.0764 18.7188 24.6389 19.0938 24.2917C19.4688 23.9306 19.9479 23.75 20.5312 23.75C21.1285 23.75 21.6076 23.9306 21.9688 24.2917C22.3438 24.6389 22.5312 25.0764 22.5312 25.6042C22.5312 26.1181 22.3438 26.5625 21.9688 26.9375C21.6076 27.3125 21.1285 27.5 20.5312 27.5Z" fill="url(#paint0_linear_157_21)"/>
<defs>
<linearGradient id="paint0_linear_157_21" x1="25.5937" y1="12.5" x2="12.5507" y2="14.3389" gradientUnits="userSpaceOnUse">
<stop stop-color="#1DAEB4"/>
<stop offset="1" stop-color="#29D9E1"/>
</linearGradient>
</defs>
</svg>
