<?xml version="1.0" standalone="no"?>
<!DOCTYPE svg PUBLIC "-//W3C//DTD SVG 20010904//EN"
 "http://www.w3.org/TR/2001/REC-SVG-20010904/DTD/svg10.dtd">
<svg version="1.0" xmlns="http://www.w3.org/2000/svg"
 width="1024.000000pt" height="1024.000000pt" viewBox="0 0 1024.000000 1024.000000"
 preserveAspectRatio="xMidYMid meet">
<metadata>
Created by potrace 1.14, written by Peter Selinger 2001-2017
</metadata>
<g transform="translate(0.000000,1024.000000) scale(0.100000,-0.100000)"
fill="#000000" stroke="none">
<path d="M1559 10236 c-2 -2 -31 -7 -64 -10 -33 -3 -71 -8 -85 -11 -14 -3 -35
-7 -47 -9 -62 -13 -220 -59 -230 -68 -7 -6 -13 -8 -13 -5 0 9 -190 -77 -255
-116 -301 -178 -512 -396 -670 -691 -55 -104 -125 -286 -141 -366 -3 -14 -9
-38 -14 -55 -5 -16 -11 -50 -15 -75 -3 -25 -10 -72 -15 -105 -10 -71 -8 -7205
3 -7250 4 -16 12 -57 18 -90 72 -378 280 -733 574 -980 33 -27 62 -52 65 -55
3 -3 46 -33 95 -66 187 -124 406 -213 632 -256 l118 -23 3590 0 c1975 0 3613
3 3640 7 464 68 836 277 1122 632 95 117 169 242 247 417 48 109 95 292 116
454 10 85 8 7205 -3 7255 -15 66 -38 175 -41 195 -2 11 -19 63 -36 115 -107
312 -295 580 -554 788 -219 176 -508 305 -781 348 -22 4 -51 9 -65 12 -28 7
-7184 14 -7191 8z"/>
</g>
</svg>
