<?xml version="1.0" encoding="utf-8"?><svg viewBox="0 0 48 48" xmlns="http://www.w3.org/2000/svg" xmlns:xlink="http://www.w3.org/1999/xlink"><style>:root>svg{display:none}:root>svg:target{display:block}</style><svg viewBox="0 0 20 20" id="checkbox" xmlns="http://www.w3.org/2000/svg"><path fill-rule="evenodd" clip-rule="evenodd" d="M15.373 5.793a1 1 0 010 1.414l-6.417 6.417a1 1 0 01-1.414 0l-2.917-2.917a1 1 0 111.414-1.414l2.21 2.21 5.71-5.71a1 1 0 011.414 0z"/></svg><svg viewBox="0 0 24 24" id="close" xmlns="http://www.w3.org/2000/svg"><path fill-rule="evenodd" clip-rule="evenodd" d="M3.951 3.952a1.2 1.2 0 011.697 0L12 10.303l6.351-6.351a1.2 1.2 0 111.697 1.697L13.697 12l6.351 6.352a1.2 1.2 0 11-1.697 1.697L12 13.697 5.648 20.05a1.2 1.2 0 11-1.697-1.697L10.303 12 3.95 5.65a1.2 1.2 0 010-1.697z"/></svg><svg viewBox="0 0 24 24" id="plus" xmlns="http://www.w3.org/2000/svg"><path fill-rule="evenodd" clip-rule="evenodd" d="M11.5 2.5a.5.5 0 01.5.5v8h8a.5.5 0 010 1h-8v8a.5.5 0 01-1 0v-8H3a.5.5 0 010-1h8V3a.5.5 0 01.5-.5z"/></svg><svg viewBox="0 0 16 16" id="profile-exit" xmlns="http://www.w3.org/2000/svg"><path d="M7.5 15H1V1h6.5a.5.5 0 000-1h-7a.5.5 0 00-.5.5v15a.5.5 0 00.5.5h7a.5.5 0 000-1z"/><path d="M15.855 7.65l-3.45-3.499a.496.496 0 00-.707 0 .508.508 0 000 .714l2.6 2.638H4.002c-.276 0-.5.226-.5.505s.224.505.5.505h10.296l-2.6 2.637a.508.508 0 000 .714.496.496 0 00.707 0l3.45-3.5a.511.511 0 000-.713z"/></svg><svg viewBox="0 0 48 48" id="profile-icon" xmlns="http://www.w3.org/2000/svg"><path d="M34.76 35.015l-.323-1.289.89-.351.611 1.007s-.12 1.126.037 1.644c.158.519-.468-.797-1.215-1.011z"/><path d="M35.327 33.375l-.89.351-.282-1.091.53-.204.642.944zM34.557 27.566c.583 2.059.55 3.627.324 4.058h-.352c-.974-2.015-5.66-9.316-8.577-11.601-3.022-2.368-5.353-3.746-7.314-4.75-.689-.353-1.395-.831-2.032-1.31a36.973 36.973 0 01-2.244-1.9l1.99 1.304.807.366-2.086-1.88c2.607.236 6.012 1.54 6.012 1.54.968 1.149 1.748 2.976 1.748 2.976.027-.914-.592-2.297-.592-2.297.457.209 2.194 1.2 2.194 1.2.85.706 1.114 2.559 1.114 2.559.161-.731-.404-2.14-.404-2.14 2.448 1.41 4.195 3.81 4.195 3.81 1.21 2.375.216 4.229.592 3.785.377-.444.296-2.062.296-2.062 2.555 2.453 2.823 3.628 2.823 3.628.43 1.044.807 3.837.807 3.837.242-.262 0-1.723 0-1.723.619 1.305.323 2.532.323 2.532.295-.105.376-1.932.376-1.932z"/><path d="M14.362 12.889s.983.953 2.244 1.9c1.976 1.559 3.878 2.833 3.878 2.833 7.453 4.404 11.605 11.59 12.978 14.055h-.73c-.258-.207-.645-.363-2.262-.831-2.044-.592-3.263-1.827-3.263-1.827s1.864 1.044 2.743.94c.878-.105 2.059.226 2.059.226s.45-.21-1.773-.54c-2.223-.33-5.88-2.818-5.88-2.818s1.399.574 2.044.521c.645-.052 2.24 0 2.24 0-1.057-.243-2.043-.104-3.656-.713-1.614-.61-1.524-.557-1.524-.557-1.829-.609-2.588-2.505-2.588-2.505.316.122 2.732.417 3.734.122 1.002-.296 2.709 0 2.709 0-1.614-.54-1.973-.296-2.367-.313-.394-.018-1.667.086-4.195-.783-2.527-.87-3.244-1.95-3.244-1.95l1.704.229c-1.113-.188-2.368-.924-2.368-.924.771.209 1.973.313 1.973.313-1.417-.313-2.206-.748-2.206-.748-1.326-1.01-1.63-2.506-1.63-2.506 1.882.644 3.37.348 3.37.348-2.582-.173-3.3-.835-3.658-.991-.359-.157-.506-.805-.506-.805 1.304.47 2.783.548 2.783.548-1.6-.248-2.97-1.057-2.97-1.057l.012-1.28c.619.353 1.694 1.097 1.694 1.097l-1.694-1.096c-.095-.549.349-.888.349-.888z"/><path d="M34.187 31.555c-2.845-5.056-6.199-9.384-8.76-11.485-3.343-2.742-5.672-3.862-7.56-5.055-.718-.454-2.045-1.158-2.717-1.72a48.497 48.497 0 005.564 3.977c7.333 4.624 11.43 11.523 13.039 14.405h-.291c-1.373-2.465-5.525-9.651-12.978-14.055 0 0-1.902-1.274-3.878-2.832-1.26-.948-2.244-1.901-2.244-1.901v-.827c.687.639 1.47 1.291 2.244 1.901.637.479 1.343.957 2.032 1.31 1.96 1.004 4.292 2.382 7.314 4.75 2.917 2.285 7.604 9.586 8.576 11.601h-.3l-.04-.07-.002.001z"/><path d="M34.685 32.43l-.53.205-.28-.738-.122-.22.475-.053.457.807z"/></svg><svg fill="none" viewBox="0 0 24 24" id="stars" xmlns="http://www.w3.org/2000/svg"><path d="M17.532 1.267a.5.5 0 01.938 0l1.072 2.897a.5.5 0 00.295.295l2.897 1.072a.5.5 0 010 .938L19.837 7.54a.5.5 0 00-.295.295l-1.072 2.897a.5.5 0 01-.938 0L16.46 7.836a.5.5 0 00-.296-.295l-2.896-1.072a.5.5 0 010-.938l2.896-1.072a.5.5 0 00.296-.295l1.072-2.897z" fill="url(#fpaint0_linear_154_19)"/><path d="M8.296 7.9c.241-.652 1.165-.652 1.407 0l1.608 4.346a.75.75 0 00.443.443l4.345 1.608c.652.242.652 1.165 0 1.407l-4.345 1.608a.75.75 0 00-.443.443L9.703 22.1c-.242.652-1.166.652-1.407 0l-1.608-4.345a.75.75 0 00-.443-.443L1.9 15.704c-.653-.242-.653-1.165 0-1.407l4.345-1.608a.75.75 0 00.443-.443L8.296 7.9z" fill="url(#fpaint1_linear_154_19)"/><defs><linearGradient id="fpaint0_linear_154_19" x1="23.06" y1=".94" x2="11.444" y2="3.136" gradientUnits="userSpaceOnUse"><stop stop-color="#1DAEB4"/><stop offset="1" stop-color="#29D9E1"/></linearGradient><linearGradient id="fpaint1_linear_154_19" x1="16.588" y1="7.411" x2="-.836" y2="10.705" gradientUnits="userSpaceOnUse"><stop stop-color="#1DAEB4"/><stop offset="1" stop-color="#29D9E1"/></linearGradient></defs></svg><svg fill="none" viewBox="0 0 24 24" id="vk-color" xmlns="http://www.w3.org/2000/svg"><path fill-rule="evenodd" clip-rule="evenodd" d="M1.689 1.689C0 3.377 0 6.086 0 11.52v.96c0 5.434 0 8.143 1.689 9.831C3.377 24 6.086 24 11.52 24h.96c5.434 0 8.143 0 9.831-1.689C24 20.623 24 17.914 24 12.48v-.96c0-5.434 0-8.143-1.689-9.831C20.623 0 17.914 0 12.48 0h-.96C6.086 0 3.377 0 1.689 1.689zM3.986 7.5c.137 6.24 3.42 10.003 8.828 10.003h.317v-3.574c1.972.197 3.446 1.671 4.046 3.574h2.846a7.904 7.904 0 00-4.02-5.014 7.621 7.621 0 003.42-4.989h-2.589c-.548 1.989-2.16 3.789-3.703 3.96V7.5H10.5v6.926c-1.594-.395-3.686-2.34-3.771-6.926H3.986z" fill="#fff"/></svg><svg fill="none" viewBox="0 0 24 24" id="yandex-color" xmlns="http://www.w3.org/2000/svg"><g clip-path="url(#hclip0_162_5)"><path d="M12 24c6.628 0 12-5.372 12-12S18.628 0 12 0 0 5.372 0 12s5.372 12 12 12z" fill="#FC3F1D"/><path d="M15.83 18.72H13.45V6.94h-1.06c-1.94 0-2.96.98-2.96 2.43 0 1.65.71 2.41 2.16 3.39l1.2.8-3.45 5.16h-2.57l3.1-4.606c-1.783-1.268-2.78-2.518-2.78-4.603 0-2.631 1.82-4.41 5.29-4.41h3.45l.002 13.62z" fill="#fff"/></g><defs><clipPath id="hclip0_162_5"><path fill="#fff" d="M0 0h24v24H0z"/></clipPath></defs></svg></svg>