<svg width="24" height="24" viewBox="0 0 24 24" fill="none" xmlns="http://www.w3.org/2000/svg">
<path d="M17.5319 1.26689C17.693 0.831609 18.3086 0.831609 18.4697 1.26689L19.5417 4.16353C19.5923 4.30037 19.7002 4.40827 19.8371 4.45891L22.7337 5.53089C23.169 5.69198 23.169 6.30764 22.7337 6.46873L19.8371 7.54072C19.7002 7.59136 19.5923 7.69925 19.5417 7.8361L18.4697 10.7327C18.3086 11.168 17.693 11.168 17.5319 10.7327L16.4599 7.8361C16.4092 7.69925 16.3014 7.59136 16.1645 7.54072L13.2679 6.46873C12.8326 6.30764 12.8326 5.69198 13.2679 5.53089L16.1645 4.45891C16.3014 4.40827 16.4092 4.30037 16.4599 4.16353L17.5319 1.26689Z" fill="url(#paint0_linear_154_19)"/>
<path d="M8.29585 7.90083C8.53749 7.2479 9.46098 7.2479 9.70261 7.90083L11.3106 12.2458C11.3865 12.4511 11.5484 12.6129 11.7537 12.6889L16.0986 14.2968C16.7515 14.5385 16.7515 15.462 16.0986 15.7036L11.7537 17.3116C11.5484 17.3875 11.3865 17.5494 11.3106 17.7546L9.70261 22.0996C9.46098 22.7525 8.53749 22.7525 8.29585 22.0996L6.68788 17.7546C6.61191 17.5494 6.45007 17.3875 6.24481 17.3116L1.89985 15.7036C1.24692 15.462 1.24693 14.5385 1.89985 14.2968L6.24481 12.6889C6.45007 12.6129 6.61191 12.451 6.68788 12.2458L8.29585 7.90083Z" fill="url(#paint1_linear_154_19)"/>
<defs>
<linearGradient id="paint0_linear_154_19" x1="23.0602" y1="0.94043" x2="11.4437" y2="3.13636" gradientUnits="userSpaceOnUse">
<stop stop-color="#1DAEB4"/>
<stop offset="1" stop-color="#29D9E1"/>
</linearGradient>
<linearGradient id="paint1_linear_154_19" x1="16.5883" y1="7.41113" x2="-0.836394" y2="10.705" gradientUnits="userSpaceOnUse">
<stop stop-color="#1DAEB4"/>
<stop offset="1" stop-color="#29D9E1"/>
</linearGradient>
</defs>
</svg>
