<svg width="24" height="24" viewBox="0 0 24 24" xmlns="http://www.w3.org/2000/svg"><path fill-rule="evenodd" clip-rule="evenodd" d="M3.95108 3.95157C4.41971 3.48294 5.17951 3.48294 5.64814 3.95157L11.9996 10.303L18.3511 3.95157C18.8197 3.48294 19.5795 3.48294 20.0481 3.95157C20.5168 4.4202 20.5168 5.18 20.0481 5.64863L13.6967 12.0001L20.0481 18.3516C20.5168 18.8202 20.5168 19.58 20.0481 20.0486C19.5795 20.5173 18.8197 20.5173 18.3511 20.0486L11.9996 13.6972L5.64814 20.0486C5.17951 20.5173 4.41971 20.5173 3.95108 20.0486C3.48245 19.58 3.48245 18.8202 3.95108 18.3516L10.3026 12.0001L3.95108 5.64863C3.48245 5.18 3.48245 4.4202 3.95108 3.95157Z"/></svg>